<svg width="26" height="26" viewBox="0 0 26 26" fill="none" xmlns="http://www.w3.org/2000/svg">
<path d="M21.4175 12.1875H17.0408C14.8633 12.1875 13.8125 11.2233 13.8125 9.22999V4.31166C13.8125 2.31832 14.8742 1.35416 17.0408 1.35416H21.4175C23.595 1.35416 24.6458 2.31832 24.6458 4.31166V9.21916C24.6458 11.2233 23.5842 12.1875 21.4175 12.1875ZM17.0408 2.97916C15.5892 2.97916 15.4375 3.39082 15.4375 4.31166V9.21916C15.4375 10.1508 15.5892 10.5517 17.0408 10.5517H21.4175C22.8692 10.5517 23.0208 10.14 23.0208 9.21916V4.31166C23.0208 3.37999 22.8692 2.97916 21.4175 2.97916H17.0408Z" fill="#EE1551"/>
<path d="M21.4175 24.6458H17.0408C14.8633 24.6458 13.8125 23.5842 13.8125 21.4175V17.0408C13.8125 14.8633 14.8742 13.8125 17.0408 13.8125H21.4175C23.595 13.8125 24.6458 14.8742 24.6458 17.0408V21.4175C24.6458 23.5842 23.5842 24.6458 21.4175 24.6458ZM17.0408 15.4375C15.7625 15.4375 15.4375 15.7625 15.4375 17.0408V21.4175C15.4375 22.6958 15.7625 23.0208 17.0408 23.0208H21.4175C22.6958 23.0208 23.0208 22.6958 23.0208 21.4175V17.0408C23.0208 15.7625 22.6958 15.4375 21.4175 15.4375H17.0408Z" fill="#EE1551"/>
<path d="M8.95919 12.1875H4.58252C2.40502 12.1875 1.35419 11.2233 1.35419 9.22999V4.31166C1.35419 2.31832 2.41585 1.35416 4.58252 1.35416H8.95919C11.1367 1.35416 12.1875 2.31832 12.1875 4.31166V9.21916C12.1875 11.2233 11.1259 12.1875 8.95919 12.1875ZM4.58252 2.97916C3.13085 2.97916 2.97919 3.39082 2.97919 4.31166V9.21916C2.97919 10.1508 3.13085 10.5517 4.58252 10.5517H8.95919C10.4109 10.5517 10.5625 10.14 10.5625 9.21916V4.31166C10.5625 3.37999 10.4109 2.97916 8.95919 2.97916H4.58252Z" fill="#EE1551"/>
<path d="M8.95919 24.6458H4.58252C2.40502 24.6458 1.35419 23.5842 1.35419 21.4175V17.0408C1.35419 14.8633 2.41585 13.8125 4.58252 13.8125H8.95919C11.1367 13.8125 12.1875 14.8742 12.1875 17.0408V21.4175C12.1875 23.5842 11.1259 24.6458 8.95919 24.6458ZM4.58252 15.4375C3.30419 15.4375 2.97919 15.7625 2.97919 17.0408V21.4175C2.97919 22.6958 3.30419 23.0208 4.58252 23.0208H8.95919C10.2375 23.0208 10.5625 22.6958 10.5625 21.4175V17.0408C10.5625 15.7625 10.2375 15.4375 8.95919 15.4375H4.58252Z" fill="#EE1551"/>
</svg>
